<svg width="20" height="22" viewBox="0 0 20 22" fill="none" xmlns="http://www.w3.org/2000/svg">
<g clip-path="url(#clip0_1016_8149)">
<path d="M15.7386 5.69759V10.3316L14.3978 11.9264V5.78094C14.3978 5.14341 14.0696 4.79221 13.4047 4.79221H6.34459C5.67845 4.79221 5.34464 5.14341 5.34464 5.78094V15.9402C5.34464 16.5776 5.67845 16.9232 6.34459 16.9232H10.1972L9.07002 18.264H6.22634C4.76611 18.264 4.00391 17.5018 4.00391 16.0235V5.69759C4.00391 4.22491 4.76611 3.45148 6.22634 3.45148H13.5174C14.9832 3.45148 15.7386 4.22491 15.7386 5.69759ZM12.7247 13.9167L12.1325 14.6211H7.3744C7.11498 14.6211 6.93092 14.4302 6.93092 14.1902C6.93092 13.9445 7.11498 13.7548 7.3744 13.7548H12.3818C12.5233 13.7548 12.646 13.8171 12.7247 13.9167ZM12.8184 11.8442C12.8184 12.0899 12.6287 12.2809 12.3818 12.2809H7.3744C7.11498 12.2809 6.93092 12.0899 6.93092 11.8442C6.93092 11.5986 7.11498 11.4145 7.3744 11.4145H12.3818C12.6287 11.4145 12.8184 11.5986 12.8184 11.8442ZM12.8184 9.5096C12.8184 9.75647 12.6287 9.94743 12.3818 9.94743H7.3744C7.11498 9.94743 6.93092 9.75647 6.93092 9.5096C6.93092 9.26952 7.11498 9.08108 7.3744 9.08108H12.3818C12.6287 9.08108 12.8184 9.26952 12.8184 9.5096ZM12.8184 7.16928C12.8184 7.41623 12.6287 7.60712 12.3818 7.60712H7.3744C7.11498 7.60712 6.93092 7.41623 6.93092 7.16928C6.93092 6.93048 7.11498 6.74078 7.3744 6.74078H12.3818C12.6287 6.74078 12.8184 6.93048 12.8184 7.16928Z" fill="#333333"/>
<path d="M11.1322 20.1189L17.8619 12.1066L16.4818 10.9478L9.75765 18.9601L9.25121 20.5609C9.19466 20.7596 9.41519 20.9504 9.59718 20.8629L11.1322 20.1189ZM18.4395 11.4383L19.0861 10.6692C19.412 10.2849 19.3958 9.89314 19.0446 9.59651L18.7618 9.35854C18.4148 9.06191 18.0206 9.13409 17.7004 9.50472L17.0468 10.2727L18.4395 11.4383Z" fill="#808080"/>
</g>
<defs>
<clipPath id="clip0_1016_8149">
<rect width="20" height="21.7199" fill="white"/>
</clipPath>
</defs>
</svg>
